<?xml version="1.0" encoding="UTF-8"?>
<!DOCTYPE svg PUBLIC "-//W3C//DTD SVG 1.1//EN" "http://www.w3.org/Graphics/SVG/1.1/DTD/svg11.dtd">
<svg version="1.1" xmlns="http://www.w3.org/2000/svg" xmlns:xlink="http://www.w3.org/1999/xlink" width="100" height="100"  xml:space="preserve" id="identity">
    <!-- Generated by PaintCode (www.paintcodeapp.com) -->
    <g id="identity-group3">
        <rect id="identity-rectangle3" stroke="none" fill="rgb(254, 247, 177)" x="0" y="0" width="100" height="100" />
        <path id="identity-bezier2" stroke="none" fill="rgb(243, 83, 35)" d="M 48.87,94.28 C 48.87,94.28 49.31,94.44 49.76,94.44 50.22,94.44 50.68,94.28 50.68,94.28 55.02,92.54 62.64,87.35 65.24,85.35 70.82,81.07 73.17,78.88 78.04,73.32 82.9,67.76 85.85,60.8 85.85,60.8 85.85,60.8 87.52,56.75 87.82,53.08 88.46,48.06 87.18,43.79 87.18,43.79 84.17,31.05 74.16,27.69 69.43,27.18 63.69,26.47 58.87,28.57 58.87,28.57 53.96,30.59 49.76,35.43 49.76,35.43 49.76,35.43 45.33,30.12 40.69,28.57 36.04,27.03 33.36,26.88 30.22,27.18 20.74,28.29 16.31,35.24 16.31,35.24 14.93,37.2 13.55,39.33 12.41,43.79 11.27,48.24 11.76,53.08 11.76,53.08 11.76,53.08 12.04,56.27 13.75,60.8 15.47,65.32 18.34,69.31 21.62,73.32 26.78,79.46 28.63,80.79 34.42,85.35 41.24,90.59 48.87,94.28 48.87,94.28 Z M 48.87,94.28" />
        <path id="identity-bezier3" stroke="rgb(85, 85, 85)" stroke-width="1.55" stroke-linecap="round" stroke-miterlimit="10" fill="none" d="M 47.5,24.5 L 33,8.5" />
        <path id="identity-bezier4" stroke="rgb(85, 85, 85)" stroke-width="1.55" stroke-linecap="round" stroke-linejoin="round" stroke-miterlimit="10" fill="none" d="M 67,11.5 L 47.5,28.5" />
        <path id="identity-bezier6" stroke="rgb(128, 128, 128)" stroke-linecap="round" stroke-linejoin="round" stroke-miterlimit="10" fill="rgb(170, 170, 170)" d="M 52.71,23.67 C 54.69,23.88 57.62,24.6 60.55,26.32 59.26,26.67 58.5,26.99 58.5,26.99 53.74,28.91 49.68,33 49.68,33 49.68,33 45.39,28.46 40.9,26.99 40.41,26.84 39.95,26.69 39.5,26.56 40.44,25.96 41.45,25.41 42.5,24.99 42.5,24.99 47.16,23 52.71,23.67 Z M 52.71,23.67" />
        <circle id="identity-oval" stroke="none" fill="rgb(85, 85, 85)" cx="32.5" cy="8" r="2.5" />
        <circle id="identity-oval2" stroke="none" fill="rgb(85, 85, 85)" cx="67" cy="11.5" r="2.5" />
        <path id="identity-bezier" stroke="rgb(0, 0, 0)" stroke-width="2" stroke-linejoin="round" stroke-miterlimit="10" fill="rgb(152, 187, 190)" d="M -0.83,26.87 C -0.83,26.87 -0.45,27 -0.06,27 0.33,27 0.74,26.87 0.74,26.87 4.49,25.48 11.08,21.32 13.32,19.72 18.14,16.29 20.18,14.54 24.39,10.08 28.59,5.63 31.14,0.05 31.14,0.05 31.14,0.05 32.59,-3.19 32.85,-6.14 33.4,-10.16 32.3,-13.58 32.3,-13.58 29.68,-23.78 21.03,-26.47 16.94,-26.88 11.99,-27.45 7.82,-25.77 7.82,-25.77 3.57,-24.15 -0.06,-20.28 -0.06,-20.28 -0.06,-20.28 -3.89,-24.53 -7.91,-25.77 -11.92,-27 -14.24,-27.13 -16.95,-26.88 -25.15,-26 -28.98,-20.43 -28.98,-20.43 -30.18,-18.86 -31.37,-17.15 -32.35,-13.58 -33.33,-10.01 -32.91,-6.14 -32.91,-6.14 -32.91,-6.14 -32.67,-3.57 -31.19,0.05 -29.7,3.67 -27.22,6.87 -24.39,10.08 -19.92,15 -18.33,16.07 -13.32,19.72 -7.43,23.92 -0.83,26.87 -0.83,26.87 Z M -0.83,26.87" transform="translate(50, 61) rotate(0.16)"  />
        <g id="identity-group" clip-path="url(#identity-bezier5)" opacity="0.5">
            <clipPath id="identity-bezier5">
                <path d="M 49.42,86.92 C 49.44,86.93 49.49,86.94 49.56,86.96 49.67,86.98 49.78,87 49.87,87 49.88,87 49.88,87 49.89,87 49.98,87 50.09,86.98 50.2,86.96 50.28,86.94 50.34,86.93 50.36,86.92 53.35,85.82 59.42,82.26 62.69,79.94 67.52,76.52 69.5,74.81 73.63,70.46 74.29,69.77 74.93,69.02 75.56,68.22 76.85,66.58 78.01,64.82 79.01,63.05 79.36,62.43 79.67,61.86 79.93,61.35 80.08,61.04 80.19,60.83 80.24,60.72 80.28,60.62 80.37,60.4 80.49,60.1 80.69,59.6 80.89,59.05 81.07,58.48 81.4,57.46 81.65,56.46 81.79,55.54 81.82,55.31 81.85,55.08 81.87,54.87 82.14,52.88 82.04,50.94 81.7,49.15 81.62,48.77 81.55,48.44 81.47,48.15 81.43,47.98 81.4,47.86 81.38,47.81 79.37,39.86 73.34,35.82 66.92,35.16 64.59,34.89 62.28,35.1 60.13,35.62 59.61,35.75 59.14,35.88 58.74,36.01 58.5,36.09 58.34,36.15 58.26,36.18 56.91,36.69 55.53,37.47 54.17,38.46 53.27,39.11 52.42,39.8 51.67,40.5 51.4,40.74 51.17,40.97 50.96,41.17 50.85,41.29 50.77,41.37 50.73,41.41 50.33,41.84 49.65,41.83 49.25,41.39 49.22,41.35 49.15,41.28 49.04,41.16 48.86,40.97 48.65,40.76 48.41,40.53 47.73,39.87 46.98,39.2 46.19,38.59 44.7,37.44 43.23,36.59 41.87,36.17 38.31,35.06 36.12,34.81 33.21,35.07 30.08,35.4 27.38,36.47 25.12,38.05 24.16,38.72 23.34,39.44 22.67,40.16 22.27,40.58 22.02,40.9 21.9,41.06 20.28,43.18 19.46,44.7 18.65,47.6 18.59,47.83 18.53,48.08 18.47,48.33 18.04,50.26 17.95,52.33 18.06,54.16 18.08,54.41 18.09,54.58 18.1,54.67 18.11,54.74 18.12,54.88 18.16,55.08 18.21,55.43 18.28,55.83 18.38,56.29 18.67,57.6 19.11,59.05 19.74,60.58 20.99,63.68 22.99,66.54 26.33,70.35 28.31,72.55 29.73,73.98 31.14,75.21 31.57,75.59 32,75.95 32.47,76.32 33.52,77.16 33.69,77.29 37.22,79.87 37.76,80.26 38.33,80.65 38.91,81.04 41.23,82.58 43.72,84.03 46.2,85.32 47.08,85.78 47.88,86.18 48.61,86.53 49.04,86.74 49.35,86.88 49.51,86.96 L 49.42,86.92 Z M 49.42,86.92" />
            </clipPath>
            <g id="identity-group2" transform="translate(38, 54.5) rotate(24.29)" >
                <rect id="identity-rectangle" stroke="none" fill="rgb(226, 227, 227)" x="-6.5" y="-33.5" width="8.5" height="67" />
                <rect id="identity-rectangle2" stroke="none" fill="rgb(226, 227, 227)" x="4.5" y="-33.5" width="4" height="67" />
            </g>
        </g>
    </g>
</svg>
