<?xml version="1.0" encoding="UTF-8"?>
<!DOCTYPE svg PUBLIC "-//W3C//DTD SVG 1.1//EN" "http://www.w3.org/Graphics/SVG/1.1/DTD/svg11.dtd">
<svg version="1.1" xmlns="http://www.w3.org/2000/svg" xmlns:xlink="http://www.w3.org/1999/xlink" width="100" height="100"  xml:space="preserve" id="canvas1">
    <!-- Generated by PaintCode (www.paintcodeapp.com) -->
    <g id="canvas1-identitygroup4">
        <rect id="canvas1-identityrectangle3" stroke="none" fill="rgb(254, 247, 162)" x="-1" y="1" width="100" height="100" />
        <g id="canvas1-identitygroup3">
            <path id="canvas1-identitybezier2" stroke="none" fill="rgb(237, 59, 28)" d="M 48.81,93.29 C 48.81,93.29 49.21,93.44 49.61,93.44 50.02,93.44 50.43,93.29 50.43,93.29 54.32,91.72 61.14,87.03 63.46,85.22 68.46,81.35 70.56,79.37 74.92,74.34 79.28,69.31 81.92,63.02 81.92,63.02 81.92,63.02 83.41,59.36 83.68,56.04 84.25,51.5 83.11,47.63 83.11,47.63 80.41,36.12 71.45,33.08 67.22,32.62 62.08,31.97 57.77,33.88 57.77,33.88 53.37,35.7 49.61,40.08 49.61,40.08 49.61,40.08 45.64,35.27 41.48,33.88 37.33,32.48 34.93,32.34 32.11,32.62 23.63,33.62 19.67,39.91 19.67,39.91 18.43,41.67 17.19,43.6 16.17,47.63 15.16,51.66 15.59,56.04 15.59,56.04 15.59,56.04 15.84,58.93 17.38,63.02 18.91,67.11 21.48,70.71 24.41,74.34 29.04,79.89 30.69,81.1 35.88,85.22 41.98,89.96 48.81,93.29 48.81,93.29 Z M 48.81,93.29" />
            <path id="canvas1-identitybezier" stroke="none" fill="rgb(58, 107, 94)" d="M 49.01,87.5 C 49.01,87.5 49.35,87.62 49.7,87.62 50.05,87.62 50.41,87.5 50.41,87.5 53.78,86.25 59.69,82.51 61.69,81.06 66.02,77.98 67.84,76.4 71.62,72.38 75.41,68.36 77.7,63.32 77.7,63.32 77.7,63.32 79,60.39 79.24,57.73 79.75,54.09 78.76,51 78.76,51 76.45,41.77 68.72,39.31 65.06,38.93 60.62,38.4 56.89,39.92 56.89,39.92 53.07,41.37 49.82,44.87 49.82,44.87 49.82,44.87 46.4,41.01 42.81,39.88 39.22,38.75 37.14,38.63 34.71,38.85 27.38,39.63 23.93,44.66 23.93,44.66 22.86,46.07 21.78,47.61 20.89,50.84 20.01,54.07 20.38,57.57 20.38,57.57 20.38,57.57 20.58,59.89 21.9,63.16 23.22,66.45 25.43,69.34 27.95,72.26 31.94,76.71 33.37,77.68 37.85,81 43.11,84.81 49.01,87.5 49.01,87.5 Z M 49.01,87.5" />
            <path id="canvas1-bezier3" stroke="rgb(0, 0, 0)" stroke-width="2" stroke-linejoin="round" stroke-miterlimit="10" fill="none" d="M 49.01,87.5 C 49.01,87.5 49.35,87.62 49.7,87.62 50.05,87.62 50.41,87.5 50.41,87.5 53.78,86.25 59.69,82.51 61.69,81.06 66.02,77.98 67.84,76.4 71.62,72.38 75.41,68.36 77.7,63.32 77.7,63.32 77.7,63.32 79,60.39 79.24,57.73 79.75,54.09 78.76,51 78.76,51 76.45,41.77 68.72,39.31 65.06,38.93 60.62,38.4 56.89,39.92 56.89,39.92 53.07,41.37 49.82,44.87 49.82,44.87 49.82,44.87 46.4,41.01 42.81,39.88 39.22,38.75 37.14,38.63 34.71,38.85 27.38,39.63 23.93,44.66 23.93,44.66 22.86,46.07 21.78,47.61 20.89,50.84 20.01,54.07 20.38,57.57 20.38,57.57 20.38,57.57 20.58,59.89 21.9,63.16 23.22,66.45 25.43,69.34 27.95,72.26 31.94,76.71 33.37,77.68 37.85,81 43.11,84.81 49.01,87.5 49.01,87.5 Z M 49.01,87.5" />
        </g>
        <path id="canvas1-identitybezier3" stroke="rgb(67, 67, 67)" stroke-width="1.55" stroke-linecap="round" stroke-miterlimit="10" fill="none" d="M 47.5,28.5 L 33,12.5" />
        <path id="canvas1-identitybezier4" stroke="rgb(67, 67, 67)" stroke-width="1.55" stroke-linecap="round" stroke-linejoin="round" stroke-miterlimit="10" fill="none" d="M 67,15.5 L 47.5,32.5" />
        <path id="canvas1-identitybezier6" stroke="rgb(109, 109, 109)" stroke-linecap="round" stroke-linejoin="round" stroke-miterlimit="10" fill="rgb(154, 154, 154)" d="M 52.71,27.67 C 54.69,27.88 57.62,28.6 60.55,30.32 59.26,30.67 58.5,30.99 58.5,30.99 53.74,32.91 49.68,37 49.68,37 49.68,37 45.39,32.46 40.9,30.99 40.41,30.84 39.95,30.69 39.5,30.56 40.44,29.96 41.45,29.41 42.5,28.99 42.5,28.99 47.16,27 52.71,27.67 Z M 52.71,27.67" />
        <circle id="canvas1-identityoval" stroke="none" fill="rgb(67, 67, 67)" cx="32.5" cy="12" r="2.5" />
        <circle id="canvas1-identityoval2" stroke="none" fill="rgb(67, 67, 67)" cx="67" cy="15.5" r="2.5" />
        <path id="canvas1-identitybezier10" stroke="none" fill="rgb(255, 255, 255)" fill-opacity="0.07" d="M 42.55,40.74 C 43.76,41.12 45.07,41.89 46.41,42.93 47.12,43.49 47.79,44.09 48.4,44.69 48.61,44.9 48.8,45.09 48.96,45.26 49.06,45.36 49.13,45.43 49.16,45.47 49.51,45.86 50.12,45.87 50.47,45.48 50.51,45.45 50.58,45.37 50.69,45.27 50.87,45.08 51.08,44.88 51.31,44.66 51.99,44.03 52.75,43.4 53.55,42.82 54.78,41.93 56.01,41.22 57.22,40.76 57.29,40.73 57.43,40.68 57.65,40.61 58.01,40.48 58.43,40.36 58.89,40.25 60.1,39.95 61.37,39.77 62.66,39.73 56.44,53.52 45.74,77.22 43.01,83.28 41.95,82.66 40.9,82 39.9,81.33 39.37,80.97 38.86,80.62 38.38,80.27 35.22,77.93 35.07,77.82 34.13,77.05 33.71,76.72 33.32,76.39 32.94,76.05 31.68,74.94 30.41,73.64 28.64,71.66 25.65,68.21 23.86,65.62 22.73,62.82 22.17,61.44 21.78,60.13 21.52,58.94 21.43,58.53 21.36,58.16 21.32,57.85 21.29,57.66 21.27,57.54 21.27,57.47 21.26,57.4 21.25,57.24 21.23,57.02 21.13,55.36 21.21,53.49 21.6,51.74 21.65,51.51 21.7,51.29 21.76,51.08 22.48,48.46 23.22,47.08 24.67,45.17 24.71,45.12 24.76,45.05 24.83,44.96 24.95,44.8 25.13,44.6 25.35,44.35 25.96,43.7 26.69,43.05 27.55,42.44 29.58,41.01 31.99,40.05 34.79,39.75 37.4,39.52 39.36,39.74 42.55,40.74 Z M 42.55,40.74" />
    </g>
</svg>
