<?xml version="1.0" encoding="UTF-8"?>
<!DOCTYPE svg PUBLIC "-//W3C//DTD SVG 1.1//EN" "http://www.w3.org/Graphics/SVG/1.1/DTD/svg11.dtd">
<svg version="1.1" xmlns="http://www.w3.org/2000/svg" xmlns:xlink="http://www.w3.org/1999/xlink" width="100" height="100"  xml:space="preserve" id="identity">
    <!-- Generated by PaintCode (www.paintcodeapp.com) -->
    <defs>
        <filter id="identity-shadow-inner" filterUnits="userSpaceOnUse">
            <feGaussianBlur in="SourceAlpha" stdDeviation="1.5" result="blur"/>
            <feOffset dx="0.1" dy="-0.1"/>
            <feComposite in2="SourceAlpha" operator="arithmetic" k2="-1.15" k3="1.15" result="shadowDiff"/>
            <feFlood flood-color="rgb(255, 255, 255)" flood-opacity="0.12"/>
            <feComposite in2="shadowDiff" operator="in"/>
            <feComposite in2="SourceGraphic" operator="over"/>
        </filter>
    </defs>
    <g id="identity-group2">
        <rect id="identity-background" stroke="none" fill="rgb(254, 232, 177)" x="0" y="0" width="100" height="100" />
        <g id="identity-heart">
            <path id="identity-red" stroke="none" fill="rgb(253, 114, 46)" d="M 49.81,90.29 C 49.81,90.29 50.21,90.44 50.61,90.44 51.02,90.44 51.43,90.29 51.43,90.29 55.32,88.72 62.14,84.03 64.46,82.22 69.46,78.35 71.56,76.37 75.92,71.34 80.28,66.31 82.92,60.02 82.92,60.02 82.92,60.02 84.41,56.36 84.68,53.04 85.25,48.5 84.11,44.63 84.11,44.63 81.41,33.12 72.45,30.08 68.22,29.62 63.08,28.97 58.77,30.88 58.77,30.88 54.37,32.7 50.61,37.08 50.61,37.08 50.61,37.08 46.64,32.27 42.48,30.88 38.33,29.48 35.93,29.34 33.11,29.62 24.63,30.62 20.67,36.91 20.67,36.91 19.43,38.67 18.19,40.6 17.17,44.63 16.16,48.66 16.59,53.04 16.59,53.04 16.59,53.04 16.84,55.93 18.38,60.02 19.91,64.11 22.48,67.71 25.41,71.34 30.04,76.89 31.69,78.1 36.88,82.22 42.98,86.96 49.81,90.29 49.81,90.29 Z M 49.81,90.29" />
            <path id="identity-green" stroke="rgb(0, 0, 0)" stroke-width="2" stroke-linejoin="round" stroke-miterlimit="10" fill="rgb(75, 120, 89)" d="M 27.79,47.5 C 27.79,47.5 28.11,47.62 28.45,47.62 28.79,47.62 29.14,47.5 29.14,47.5 32.38,46.27 38.07,42.61 40.01,41.2 44.17,38.17 45.93,36.63 49.56,32.7 53.2,28.77 55.4,23.85 55.4,23.85 55.4,23.85 56.65,20.99 56.87,18.4 57.34,14.85 56.39,11.83 56.39,11.83 54.14,2.84 46.67,0.47 43.14,0.1 38.85,-0.4 35.25,1.09 35.25,1.09 31.58,2.51 28.45,5.93 28.45,5.93 28.45,5.93 25.14,2.18 21.67,1.09 18.21,-0 16.2,-0.11 13.86,0.1 6.78,0.88 3.47,5.8 3.47,5.8 2.44,7.18 1.41,8.68 0.56,11.83 -0.29,14.98 0.08,18.4 0.08,18.4 0.08,18.4 0.28,20.66 1.56,23.85 2.85,27.05 4.99,29.86 7.43,32.7 11.29,37.03 12.67,37.98 17,41.2 22.09,44.9 27.79,47.5 27.79,47.5 Z M 27.79,47.5" transform="translate(25.06, 38.92) rotate(0.16) scale(0.9, 0.9)"  />
            <g id="identity-mask" clip-path="url(#identity-bezier7)" opacity="0.1" transform="translate(25.06, 38.92) scale(0.9, 0.9)" >
                <clipPath id="identity-bezier7">
                    <path d="M -1.04,24.3 C -1.04,24.3 -0.71,24.42 -0.37,24.42 -0.03,24.42 0.31,24.3 0.31,24.3 3.55,23.07 9.25,19.41 11.18,17.99 15.35,14.97 17.1,13.43 20.74,9.5 24.37,5.57 26.58,0.65 26.58,0.65 26.58,0.65 27.82,-2.21 28.05,-4.8 28.52,-8.35 27.57,-11.37 27.57,-11.37 25.32,-20.36 17.84,-22.74 14.31,-23.1 10.03,-23.6 6.43,-22.11 6.43,-22.11 2.76,-20.69 -0.37,-17.27 -0.37,-17.27 -0.37,-17.27 -3.68,-21.02 -7.15,-22.11 -10.62,-23.2 -12.62,-23.31 -14.97,-23.1 -22.04,-22.32 -25.35,-17.4 -25.35,-17.4 -26.38,-16.02 -27.41,-14.52 -28.26,-11.37 -29.11,-8.22 -28.75,-4.8 -28.75,-4.8 -28.75,-4.8 -28.54,-2.54 -27.26,0.65 -25.98,3.84 -23.83,6.66 -21.39,9.5 -17.53,13.83 -16.15,14.78 -11.83,17.99 -6.74,21.7 -1.04,24.3 -1.04,24.3 Z M -1.04,24.3" transform="translate(28.76, 23.28) rotate(0.16)"  />
                </clipPath>
                <rect id="identity-light" stroke="none" fill="rgb(226, 227, 227)" x="0" y="0" width="37.39" height="60.46"  transform="translate(12.07, -25.67) rotate(24.29)" />
            </g>
        </g>
        <g id="identity-group">
            <path id="identity-bezier3" stroke="rgb(85, 85, 85)" stroke-width="1.55" stroke-linecap="round" stroke-miterlimit="10" fill="none" d="M 48.5,28.5 L 34,12.5" />
            <path id="identity-bezier4" stroke="rgb(85, 85, 85)" stroke-width="1.55" stroke-linecap="round" stroke-linejoin="round" stroke-miterlimit="10" fill="none" d="M 68,15.5 L 48.5,32.5" />
            <circle id="identity-oval" stroke="none" fill="rgb(85, 85, 85)" cx="33.5" cy="12" r="2.5" />
            <circle id="identity-oval2" stroke="none" fill="rgb(85, 85, 85)" cx="68" cy="15.5" r="2.5" />
            <path id="identity-bezier2" stroke="rgb(128, 128, 128)" stroke-width="1.55" stroke-linecap="round" stroke-linejoin="round" stroke-miterlimit="10" fill="rgb(170, 170, 170)" d="M 53.71,27.67 C 55.57,27.87 58.71,28.51 61.51,30.02 59.82,30.41 58.77,30.88 58.77,30.88 54.37,32.7 50.61,37.08 50.61,37.08 50.61,37.08 46.64,32.27 42.48,30.88 41.78,30.64 41.12,30.44 40.51,30.27 41.43,29.78 42.62,29.34 43.5,28.99 43.5,28.99 48.16,27 53.71,27.67 Z M 53.71,27.67" />
        </g>
    </g>
</svg>
