<?xml version="1.0" encoding="UTF-8"?>
<!DOCTYPE svg PUBLIC "-//W3C//DTD SVG 1.1//EN" "http://www.w3.org/Graphics/SVG/1.1/DTD/svg11.dtd">
<svg version="1.1" xmlns="http://www.w3.org/2000/svg" xmlns:xlink="http://www.w3.org/1999/xlink" width="100" height="100"  xml:space="preserve" id="identity">
    <!-- Generated by PaintCode (www.paintcodeapp.com) -->
    <defs>
        <filter id="identity-shadow-inner" filterUnits="userSpaceOnUse">
            <feGaussianBlur in="SourceAlpha" stdDeviation="1.5" result="blur"/>
            <feOffset dx="0.1" dy="-0.1"/>
            <feComposite in2="SourceAlpha" operator="arithmetic" k2="-1.15" k3="1.15" result="shadowDiff"/>
            <feFlood flood-color="rgb(255, 255, 255)" flood-opacity="0.12"/>
            <feComposite in2="shadowDiff" operator="in"/>
            <feComposite in2="SourceGraphic" operator="over"/>
        </filter>
    </defs>
    <g id="identity-group">
        <rect id="identity-background" stroke="none" fill="rgb(254, 247, 177)" x="0" y="0" width="100" height="100" />
        <g id="identity-heart">
            <path id="identity-red" stroke="none" fill="rgb(243, 83, 35)" d="M 49.81,92.29 C 49.81,92.29 50.21,92.44 50.61,92.44 51.02,92.44 51.43,92.29 51.43,92.29 55.32,90.72 62.14,86.03 64.46,84.22 69.46,80.35 71.56,78.37 75.92,73.34 80.28,68.31 82.92,62.02 82.92,62.02 82.92,62.02 84.41,58.36 84.68,55.04 85.25,50.5 84.11,46.63 84.11,46.63 81.41,35.12 72.45,32.08 68.22,31.62 63.08,30.97 58.77,32.88 58.77,32.88 54.37,34.7 50.61,39.08 50.61,39.08 50.61,39.08 46.64,34.27 42.48,32.88 38.33,31.48 35.93,31.34 33.11,31.62 24.63,32.62 20.67,38.91 20.67,38.91 19.43,40.67 18.19,42.6 17.17,46.63 16.16,50.66 16.59,55.04 16.59,55.04 16.59,55.04 16.84,57.93 18.38,62.02 19.91,66.11 22.48,69.71 25.41,73.34 30.04,78.89 31.69,80.1 36.88,84.22 42.98,88.96 49.81,92.29 49.81,92.29 Z M 49.81,92.29" />
            <path id="identity-green" stroke="rgb(0, 0, 0)" stroke-width="2" stroke-linejoin="round" stroke-miterlimit="10" fill="rgb(73, 125, 113)" d="M -1.04,24.3 C -1.04,24.3 -0.71,24.42 -0.37,24.42 -0.03,24.42 0.31,24.3 0.31,24.3 3.55,23.07 9.25,19.41 11.18,17.99 15.35,14.97 17.1,13.43 20.74,9.5 24.37,5.57 26.58,0.65 26.58,0.65 26.58,0.65 27.82,-2.21 28.05,-4.8 28.52,-8.35 27.57,-11.37 27.57,-11.37 25.32,-20.36 17.84,-22.74 14.31,-23.1 10.03,-23.6 6.43,-22.11 6.43,-22.11 2.76,-20.69 -0.37,-17.27 -0.37,-17.27 -0.37,-17.27 -3.68,-21.02 -7.15,-22.11 -10.62,-23.2 -12.62,-23.31 -14.97,-23.1 -22.04,-22.32 -25.35,-17.4 -25.35,-17.4 -26.38,-16.02 -27.41,-14.52 -28.26,-11.37 -29.11,-8.22 -28.75,-4.8 -28.75,-4.8 -28.75,-4.8 -28.54,-2.54 -27.26,0.65 -25.98,3.84 -23.83,6.66 -21.39,9.5 -17.53,13.83 -16.15,14.78 -11.83,17.99 -6.74,21.7 -1.04,24.3 -1.04,24.3 Z M -1.04,24.3" transform="translate(50.82, 62.2) rotate(0.16)"  />
            <g id="identity-mask" clip-path="url(#identity-bezier7)" opacity="0.1">
                <clipPath id="identity-bezier7">
                    <path d="M -1.04,24.3 C -1.04,24.3 -0.71,24.42 -0.37,24.42 -0.03,24.42 0.31,24.3 0.31,24.3 3.55,23.07 9.25,19.41 11.18,17.99 15.35,14.97 17.1,13.43 20.74,9.5 24.37,5.57 26.58,0.65 26.58,0.65 26.58,0.65 27.82,-2.21 28.05,-4.8 28.52,-8.35 27.57,-11.37 27.57,-11.37 25.32,-20.36 17.84,-22.74 14.31,-23.1 10.03,-23.6 6.43,-22.11 6.43,-22.11 2.76,-20.69 -0.37,-17.27 -0.37,-17.27 -0.37,-17.27 -3.68,-21.02 -7.15,-22.11 -10.62,-23.2 -12.62,-23.31 -14.97,-23.1 -22.04,-22.32 -25.35,-17.4 -25.35,-17.4 -26.38,-16.02 -27.41,-14.52 -28.26,-11.37 -29.11,-8.22 -28.75,-4.8 -28.75,-4.8 -28.75,-4.8 -28.54,-2.54 -27.26,0.65 -25.98,3.84 -23.83,6.66 -21.39,9.5 -17.53,13.83 -16.15,14.78 -11.83,17.99 -6.74,21.7 -1.04,24.3 -1.04,24.3 Z M -1.04,24.3" transform="translate(50.82, 62.2) rotate(0.16)"  />
                </clipPath>
                <rect id="identity-light" stroke="none" fill="rgb(226, 227, 227)" x="0" y="0" width="37.39" height="60.46"  transform="translate(34.14, 13.25) rotate(24.29)" />
            </g>
        </g>
        <path id="identity-bezier3" stroke="rgb(85, 85, 85)" stroke-width="1.55" stroke-linecap="round" stroke-miterlimit="10" fill="none" d="M 48.5,27.5 L 34,11.5" />
        <path id="identity-bezier4" stroke="rgb(85, 85, 85)" stroke-width="1.55" stroke-linecap="round" stroke-linejoin="round" stroke-miterlimit="10" fill="none" d="M 68,14.5 L 48.5,31.5" />
        <path id="identity-bezier6" stroke="rgb(128, 128, 128)" stroke-linecap="round" stroke-linejoin="round" stroke-miterlimit="10" fill="rgb(170, 170, 170)" d="M 53.71,26.67 C 55.69,26.88 58.62,27.6 61.55,29.32 60.26,29.67 59.5,29.99 59.5,29.99 54.74,31.91 50.68,36 50.68,36 50.68,36 46.39,31.46 41.9,29.99 41.41,29.84 40.95,29.69 40.5,29.56 41.44,28.96 42.45,28.41 43.5,27.99 43.5,27.99 48.16,26 53.71,26.67 Z M 53.71,26.67" />
        <circle id="identity-oval" stroke="none" fill="rgb(85, 85, 85)" cx="33.5" cy="11" r="2.5" />
        <circle id="identity-oval2" stroke="none" fill="rgb(85, 85, 85)" cx="68" cy="14.5" r="2.5" />
    </g>
</svg>
